<svg id="Discord-Logo-White" xmlns="http://www.w3.org/2000/svg" width="46.65" height="53.315" viewBox="0 0 46.65 53.315">
  <path id="Path_9" data-name="Path 9" d="M96.919,103.9a2.97,2.97,0,1,0,2.719,2.959A2.84,2.84,0,0,0,96.919,103.9Zm9.73,0a2.97,2.97,0,1,0,2.719,2.959A2.84,2.84,0,0,0,106.649,103.9Z" transform="translate(-78.419 -81.534)" fill="#ff99cb"/>
  <path id="Path_10" data-name="Path 10" d="M76.186,20H40.465A5.478,5.478,0,0,0,35,25.491V61.532a5.478,5.478,0,0,0,5.465,5.491H70.694l-1.413-4.932,3.412,3.172,3.226,2.986,5.731,5.065V25.491A5.478,5.478,0,0,0,76.186,20ZM65.9,54.814s-.96-1.146-1.759-2.159a8.412,8.412,0,0,0,4.825-3.172A15.254,15.254,0,0,1,65.9,51.056,17.545,17.545,0,0,1,62.031,52.2a18.674,18.674,0,0,1-6.9-.027,22.377,22.377,0,0,1-3.919-1.146,15.622,15.622,0,0,1-1.946-.906c-.08-.053-.16-.08-.24-.133a.368.368,0,0,1-.107-.08c-.48-.267-.746-.453-.746-.453A8.291,8.291,0,0,0,52.834,52.6c-.8,1.013-1.786,2.213-1.786,2.213-5.891-.187-8.13-4.052-8.13-4.052a35.7,35.7,0,0,1,3.839-15.541,13.182,13.182,0,0,1,7.491-2.8l.267.32A17.984,17.984,0,0,0,47.5,36.234s.586-.32,1.573-.773a20.019,20.019,0,0,1,6.051-1.679,2.627,2.627,0,0,1,.453-.053,22.555,22.555,0,0,1,5.385-.053,21.73,21.73,0,0,1,8.024,2.559,17.741,17.741,0,0,0-6.638-3.385l.373-.427a13.182,13.182,0,0,1,7.491,2.8,35.7,35.7,0,0,1,3.839,15.541S71.787,54.628,65.9,54.814Z" transform="translate(-35 -20)" fill="#ff99cb"/>
</svg>
