<svg xmlns="http://www.w3.org/2000/svg" width="46.65" height="53.315"><path data-name="Path 9" d="M18.5 22.366a2.97 2.97 0 1 0 2.719 2.959 2.84 2.84 0 0 0-2.719-2.959zm9.73 0a2.97 2.97 0 1 0 2.719 2.959 2.84 2.84 0 0 0-2.719-2.959z" fill="#ff99cb"/><path data-name="Path 10" d="M41.186 0H5.465A5.478 5.478 0 0 0 0 5.491v36.041a5.478 5.478 0 0 0 5.465 5.491h30.229l-1.413-4.932 3.412 3.172 3.226 2.986 5.731 5.065V5.491A5.478 5.478 0 0 0 41.186 0zM30.9 34.814s-.96-1.146-1.759-2.159a8.412 8.412 0 0 0 4.825-3.172 15.254 15.254 0 0 1-3.066 1.573 17.545 17.545 0 0 1-3.869 1.144 18.674 18.674 0 0 1-6.9-.027 22.377 22.377 0 0 1-3.919-1.146 15.622 15.622 0 0 1-1.946-.906c-.08-.053-.16-.08-.24-.133a.368.368 0 0 1-.107-.08c-.48-.267-.746-.453-.746-.453a8.291 8.291 0 0 0 4.661 3.145c-.8 1.013-1.786 2.213-1.786 2.213-5.891-.187-8.13-4.052-8.13-4.052a35.7 35.7 0 0 1 3.839-15.541 13.182 13.182 0 0 1 7.491-2.8l.267.32a17.984 17.984 0 0 0-7.015 3.494s.586-.32 1.573-.773a20.019 20.019 0 0 1 6.051-1.679 2.627 2.627 0 0 1 .453-.053 22.555 22.555 0 0 1 5.385-.053 21.73 21.73 0 0 1 8.024 2.559 17.741 17.741 0 0 0-6.638-3.385l.373-.427a13.182 13.182 0 0 1 7.491 2.8 35.7 35.7 0 0 1 3.839 15.541s-2.264 3.864-8.151 4.05z" fill="#ff99cb"/></svg>