<svg width="200" height="200" viewBox="0 0 200 200" fill="none" xmlns="http://www.w3.org/2000/svg">
<path d="M116.667 149.999V133.333H145.833C150.642 133.332 155.376 132.142 159.614 129.87C163.851 127.597 167.461 124.312 170.123 120.307C172.784 116.302 174.413 111.701 174.866 106.913C175.319 102.126 174.581 97.3011 172.719 92.8679C170.856 88.4347 167.926 84.5308 164.19 81.5037C160.454 78.4766 156.027 76.4203 151.304 75.5177C146.58 74.6152 141.707 74.8944 137.118 76.3306C132.529 77.7667 128.366 80.3153 125 83.7493V83.3327C125 70.0718 119.732 57.3542 110.355 47.9773C100.979 38.6005 88.2609 33.3327 75.0001 33.3327C61.7392 33.3327 49.0215 38.6005 39.6447 47.9773C30.2679 57.3542 25.0001 70.0718 25.0001 83.3327V83.391H8.3334V83.3327C8.32078 67.7756 13.7492 52.704 23.6787 40.7279C33.6081 28.7518 47.4133 20.6253 62.7034 17.7558C77.9935 14.8863 93.8057 17.4545 107.402 25.0156C120.998 32.5767 131.521 44.6546 137.15 59.1577C143.42 57.9518 149.872 58.069 156.093 59.5019C162.315 60.9347 168.169 63.6516 173.279 67.4784C178.39 71.3052 182.644 76.1574 185.77 81.7241C188.896 87.2909 190.825 93.4493 191.432 99.8048C192.04 106.16 191.313 112.573 189.298 118.631C187.283 124.689 184.025 130.259 179.732 134.985C175.439 139.71 170.206 143.487 164.369 146.073C158.531 148.658 152.218 149.996 145.833 149.999H116.667ZM50.0001 166.666H133.333V183.333H50.0001V166.666ZM50.0001 99.9993H116.667V116.666H50.0001V99.9993ZM16.6667 133.333H100V149.999H16.6667V133.333Z" fill="#B30000"/>
</svg>
