<svg id="Group_3" data-name="Group 3" xmlns="http://www.w3.org/2000/svg" xmlns:xlink="http://www.w3.org/1999/xlink" width="237.08" height="237.08" viewBox="0 0 237.08 237.08">
  <defs>
    <linearGradient id="linear-gradient" x1="0.5" x2="0.5" y2="1" gradientUnits="objectBoundingBox">
      <stop offset="0" stop-color="#ffd5ed"/>
      <stop offset="1" stop-color="#ffd5ed"/>
    </linearGradient>
  </defs>
  <path id="Path_14" data-name="Path 14" d="M6.026,29.99A23.8,23.8,0,0,1,29.584,6,23.8,23.8,0,0,1,53.141,29.99a23.8,23.8,0,0,1-23.558,23.99A23.8,23.8,0,0,1,6.026,29.99Z" transform="translate(88.941 88.55)" fill="url(#linear-gradient)"/>
  <path id="Path_15" data-name="Path 15" d="M88,0h61.009L151.6,13.229v.047l4.267,21.1a92.762,92.762,0,0,1,16.88,9.91l21.258-7.239,12.581-3.967,6.591,11.49,17.18,29.3,6.717,11.743-10,8.9L211.128,108.33a63.831,63.831,0,0,1,.964,10.21,67.566,67.566,0,0,1-.948,10.21l15.995,13.877,9.942,8.835-6.765,11.822-17.133,29.224-6.591,11.538-12.755-4.078-21.084-7.176a92.885,92.885,0,0,1-16.88,9.91L151.6,223.8v.047l-2.56,13.229H88.036l-2.576-13.261L81.192,202.7a92.888,92.888,0,0,1-16.88-9.91l-21.227,7.223-12.628,4.03L23.9,192.509,6.7,163.19,0,151.463l9.989-8.9,15.932-13.83a64.407,64.407,0,0,1-.948-10.194,65.309,65.309,0,0,1,.964-10.194L9.91,94.437,0,85.633,6.733,73.811l17.149-29.24,6.559-11.506,12.771,4.046L64.3,44.287a92.857,92.857,0,0,1,16.88-9.91l4.267-21.132ZM118.54,79.027c-21.432,0-38.8,17.7-38.8,39.513s17.386,39.513,38.786,39.513c21.416,0,38.786-17.7,38.786-39.513S139.925,79.027,118.54,79.027Z" fill-rule="evenodd" fill="url(#linear-gradient)"/>
</svg>
